Coordinates
version=1
nRows=10
nColumns=46
inDegrees=yes

Units are S.I. units (second, meters, Newtons, ...)
Angles are in degrees.

endheader
time	pelvis_tilt	pelvis_list	pelvis_rotation	pelvis_tx	pelvis_ty	pelvis_tz	bb_angle	bb_tx	bb_ty	bb_tz	hip_flexion_r	hip_adduction_r	hip_rotation_r	knee_angle_r	knee_angle_r_beta	ankle_angle_r	subtalar_angle_r	mtp_angle_r	crank_angle_r	hip_flexion_l	hip_adduction_l	hip_rotation_l	knee_angle_l	knee_angle_l_beta	ankle_angle_l	subtalar_angle_l	mtp_angle_l	crank_angle_l	lumbar_extension	lumbar_bending	lumbar_rotation	arm_flex_r	arm_add_r	arm_rot_r	elbow_flex_r	pro_sup_r	wrist_flex_r	wrist_dev_r	arm_flex_l	arm_add_l	arm_rot_l	elbow_flex_l	pro_sup_l	wrist_flex_l	wrist_dev_l
      2.50000000	    -27.19078229	     -4.33357314	     -2.41555323	      0.31247325	      1.13683498	     -0.24609919	      0.00000000	      0.50000000	      0.00000000	      0.25000000	     65.68227991	      2.38426683	     -2.75870824	     63.20162800	      1.10307650	     13.17357613	    -12.48878164	      0.00000000	      0.00000000	     52.70979722	     -8.04011107	      5.78117417	     75.50498948	      1.31781067	    -10.19183510	    -16.65578996	      0.00000000	      0.00000000	    -58.64463842	     12.49252144	      2.06426527	     63.65379932	     -2.72778281	     32.07485968	     71.60247790	     47.62822060	      0.00000000	      0.00000000	     43.81137595	    -29.92613428	      9.61642675	     78.45626499	     47.28287370	      0.00000000	      0.00000000
      2.50500000	    -26.82028445	     -4.33112251	     -2.07789349	      0.31377195	      1.13568828	     -0.24693939	      0.00000000	      0.50000000	      0.00000000	      0.25000000	     64.77810427	      2.12501521	     -2.86182994	     62.41011333	      1.08926196	     12.37229683	    -12.95360915	      0.00000000	      0.00000000	     53.07550325	     -7.79146522	      6.07904259	     77.05668484	      1.34489286	     -9.62015755	    -16.48144168	      0.00000000	      0.00000000	    -58.68858345	     12.71675968	      1.96889473	     62.99636451	     -2.72586150	     31.58478949	     71.87741152	     47.67596613	      0.00000000	      0.00000000	     43.80081224	    -29.81661075	      9.88391353	     78.11238670	     47.29675060	      0.00000000	      0.00000000
      2.51000000	    -26.46113860	     -4.11397677	     -1.88048784	      0.31507438	      1.13448351	     -0.24750711	      0.00000000	      0.50000000	      0.00000000	      0.25000000	     63.93841136	      1.88899149	     -2.65848937	     61.69735010	      1.07682190	     11.82266563	    -12.95731056	      0.00000000	      0.00000000	     53.39202325	     -7.50607456	      6.08774160	     78.53774993	      1.37074232	     -9.30812651	    -16.20319230	      0.00000000	      0.00000000	    -58.67717748	     12.61605724	      1.75241158	     62.42585307	     -2.82417017	     31.28473976	     71.96727218	     47.69961363	      0.00000000	      0.00000000	     43.86278646	    -29.65426591	     10.15789018	     77.87053652	     47.31395557	      0.00000000	      0.00000000
      2.51500000	    -26.12406312	     -3.82764869	     -1.70249833	      0.31639876	      1.13320992	     -0.24813878	      0.00000000	      0.50000000	      0.00000000	      0.25000000	     63.11621031	      1.62141386	     -2.37035698	     61.00532869	      1.06474385	     11.32434812	    -12.81307957	      0.00000000	      0.00000000	     53.73667237	     -7.20920388	      5.97478728	     79.98899744	      1.39607137	     -9.26864034	    -16.13005776	      0.00000000	      0.00000000	    -58.63280490	     12.48872484	      1.40397737	     62.11179207	     -2.92269265	     31.21499225	     71.95779360	     47.70243709	      0.00000000	      0.00000000	     43.80490724	    -29.52361215	     10.28433382	     77.77603436	     47.31800960	      0.00000000	      0.00000000
      2.52000000	    -25.68437984	     -3.73033945	     -1.46478304	      0.31771829	      1.13215573	     -0.24880573	      0.00000000	      0.50000000	      0.00000000	      0.25000000	     62.12760814	      1.40786060	     -2.36302178	     60.20726026	      1.05081493	     10.45171362	    -13.25147621	      0.00000000	      0.00000000	     54.02899411	     -7.02597514	      6.10742879	     81.47939310	      1.42208368	     -8.70387992	    -15.37006123	      0.00000000	      0.00000000	    -58.62889246	     12.40572156	      1.90244865	     60.89177377	     -3.38565845	     29.69277949	     72.83811726	     47.91670857	      0.00000000	      0.00000000	     45.08718104	    -28.76596826	     12.02636106	     75.90399995	     47.36886605	      0.00000000	      0.00000000
      2.52500000	    -25.30719042	     -3.42352011	     -1.28641681	      0.31894031	      1.13083864	     -0.24947171	      0.00000000	      0.50000000	      0.00000000	      0.25000000	     61.28141125	      1.10661994	     -2.10671101	     59.57739313	      1.03982167	     10.06329042	    -13.14898753	      0.00000000	      0.00000000	     54.37830060	     -6.73573046	      5.95850910	     82.93980239	      1.44757263	     -8.71403559	    -15.40777094	      0.00000000	      0.00000000	    -58.60780646	     12.24774949	      1.53174143	     60.61636768	     -3.48793948	     29.69588418	     72.79879638	     47.92011820	      0.00000000	      0.00000000	     44.99033396	    -28.64539031	     12.11949472	     75.83744520	     47.37384593	      0.00000000	      0.00000000
      2.53000000	    -24.70350180	     -3.26194954	     -1.04525721	      0.32024296	      1.12994462	     -0.25019281	      0.00000000	      0.50000000	      0.00000000	      0.25000000	     60.13150017	      0.81716009	     -2.11337055	     58.83336705	      1.02683597	      9.02117198	    -13.71699851	      0.00000000	      0.00000000	     54.49253643	     -6.53876361	      5.96579638	     84.37612651	      1.47264122	     -8.31824861	    -14.88042774	      0.00000000	      0.00000000	    -58.78947836	     12.20349612	      1.39082081	     60.08800690	     -3.56093163	     29.39149446	     72.75721894	     47.96295941	      0.00000000	      0.00000000	     45.30390790	    -28.46702215	     12.66468808	     75.08126573	     47.37537325	      0.00000000	      0.00000000
      2.53500000	    -24.25828099	     -2.95801754	     -0.81213889	      0.32153863	      1.12874601	     -0.25098030	      0.00000000	      0.50000000	      0.00000000	      0.25000000	     59.17987016	      0.41390617	     -1.99727339	     58.18172702	      1.01546270	      8.48751126	    -13.67732543	      0.00000000	      0.00000000	     54.78026698	     -6.23301942	      5.82703003	     85.77364922	      1.49703259	     -8.28990005	    -14.67578212	      0.00000000	      0.00000000	    -58.77320277	     12.06647220	      1.02295385	     59.60448368	     -3.68530112	     29.31943945	     72.66651929	     47.96473731	      0.00000000	      0.00000000	     45.26348282	    -28.30442418	     12.88509452	     74.86613530	     47.37983127	      0.00000000	      0.00000000
      2.54000000	    -23.72797133	     -2.68375399	     -0.57979674	      0.32276513	      1.12771133	     -0.25174307	      0.00000000	      0.50000000	      0.00000000	      0.25000000	     58.11893197	      0.04626130	     -1.90387254	     57.50756189	      1.00369630	      7.90251220	    -13.80860093	      0.00000000	      0.00000000	     54.97468451	     -5.96836680	      5.71160462	     87.14165103	      1.52090873	     -8.13807704	    -14.30389062	      0.00000000	      0.00000000	    -58.85379030	     11.91265739	      0.71469248	     59.17702842	     -3.75705375	     29.08935393	     72.56892989	     47.95722564	      0.00000000	      0.00000000	     45.37352600	    -28.12381055	     13.24248487	     74.46955475	     47.37433305	      0.00000000	      0.00000000
      2.54500000	    -23.33557525	     -2.38017519	     -0.42144558	      0.32386645	      1.12634951	     -0.25247490	      0.00000000	      0.50000000	      0.00000000	      0.25000000	     57.22720115	     -0.28423964	     -1.71777039	     56.89484858	      0.99300244	      7.44173645	    -13.68470397	      0.00000000	      0.00000000	     55.35390185	     -5.74300358	      5.51293078	     88.55111641	      1.54550854	     -8.17341763	    -14.22200386	      0.00000000	      0.00000000	    -58.79577574	     11.67648456	      0.31308103	     58.89775403	     -3.86187863	     29.01169472	     72.50281532	     47.94934183	      0.00000000	      0.00000000	     45.34503135	    -27.97581519	     13.40525305	     74.33682108	     47.37510431	      0.00000000	      0.00000000
